<?xml version="1.0" encoding="utf-8"?>
<!-- Generator: Adobe Illustrator 17.1.0, SVG Export Plug-In . SVG Version: 6.00 Build 0)  -->
<!DOCTYPE svg PUBLIC "-//W3C//DTD SVG 1.1//EN" "http://www.w3.org/Graphics/SVG/1.1/DTD/svg11.dtd">
<svg version="1.1" id="Capa_1" xmlns="http://www.w3.org/2000/svg" xmlns:xlink="http://www.w3.org/1999/xlink" x="0px" y="0px"
	 width="224.4px" height="223.8px" viewBox="0 0 224.4 223.8" enable-background="new 0 0 224.4 223.8" xml:space="preserve">
<g>
	<path fill="#E74E1B" d="M223.1,44.4l-11.2,6.7C181.1,1.1,115.8-15,65.2,15.2c-50.9,30.3-67.6,96-37.7,147l14.1-8.4
		c-25.3-43.2-11-98.8,32-124.4c42.8-25.5,98-12,124.2,30.2l-29.7,17.7l1.3,2.1l54.9-32.8L223.1,44.4z"/>
	<path fill="#B1B1B1" d="M93.7,107l-2.4-7.7H77.5l-2.6,7.7h-8.3L80,69.7h9l13.1,37.3H93.7z M84.4,78.1L84.4,78.1L79.6,93h9.5
		L84.4,78.1z"/>
	<path fill="#B1B1B1" d="M125.3,107v-9.6c0-1.8-0.4-3.1-1.2-3.8c-0.8-0.8-2.4-1.1-4.6-1.1h-8.3V107h-7.6V69.7h18.9
		c1.7,0,3.3,0.3,4.7,0.8c1.4,0.5,2.6,1.3,3.6,2.2c1,1,1.8,2.1,2.3,3.4c0.5,1.3,0.8,2.8,0.8,4.3c0,2-0.5,3.8-1.4,5.4
		c-1,1.6-2.3,2.6-4.1,3.3c1.6,0.5,2.8,1.3,3.5,2.4c0.7,1.1,1,2.7,1,4.9V107H125.3z M111.2,76.2v9.9h9.8c2.1,0,3.6-0.5,4.4-1.4
		c0.9-0.9,1.3-2.1,1.3-3.5c0-1.4-0.4-2.6-1.3-3.6c-0.8-0.9-2.2-1.4-4.2-1.4H111.2z"/>
	<polygon fill="#B1B1B1" points="145.9,107 145.9,76.2 134.7,76.2 134.7,69.8 165,69.8 165,76.2 153.8,76.2 153.8,107 	"/>
	<path fill="#B1B1B1" d="M89.2,131.4c-0.4,2.1-1.1,4.1-2,5.8c-0.9,1.7-2,3.2-3.4,4.4c-1.4,1.2-2.9,2.2-4.7,2.9c-1.8,0.7-3.8,1-6,1
		c-2.4,0-4.7-0.4-6.8-1.2c-2.1-0.8-3.9-2.1-5.5-3.7c-1.5-1.6-2.7-3.7-3.6-6.1c-0.9-2.4-1.3-5.2-1.3-8.5c0-3.1,0.4-6,1.2-8.5
		c0.8-2.5,2-4.7,3.5-6.4c1.5-1.7,3.3-3.1,5.5-4c2.2-0.9,4.6-1.4,7.2-1.4c2.3,0,4.4,0.3,6.3,1c1.9,0.7,3.5,1.7,4.9,2.9
		c1.4,1.2,2.5,2.7,3.3,4.3c0.8,1.7,1.3,3.4,1.5,5.3h-7.8c-0.5-2.1-1.5-3.8-3-5c-1.5-1.2-3.2-1.8-5.1-1.8c-3.3,0-5.7,1.2-7.2,3.5
		c-1.5,2.3-2.3,5.5-2.3,9.6c0,4.2,0.8,7.4,2.3,9.7c1.5,2.3,3.8,3.5,6.8,3.5c2.3,0,4.2-0.6,5.6-1.9c1.4-1.3,2.4-3.1,2.9-5.4H89.2z"/>
	<path fill="#B1B1B1" d="M107.9,145.5c-5.8,0-10.2-1.7-13.3-5.1c-3.1-3.4-4.6-8.2-4.6-14.5c0-3.1,0.4-6,1.2-8.5
		c0.8-2.5,1.9-4.6,3.5-6.4c1.5-1.7,3.4-3.1,5.6-4c2.2-0.9,4.8-1.4,7.6-1.4c2.8,0,5.4,0.5,7.6,1.4c2.2,0.9,4.1,2.3,5.6,4
		c1.5,1.8,2.6,3.9,3.4,6.4c0.8,2.5,1.2,5.4,1.2,8.6c0,6.4-1.5,11.3-4.6,14.5C118.1,143.8,113.7,145.5,107.9,145.5 M107.9,138.8
		c1.4,0,2.7-0.3,3.9-0.8c1.2-0.5,2.3-1.3,3.2-2.3c0.9-1,1.6-2.3,2.2-4c0.5-1.6,0.8-3.5,0.8-5.7c0-4.4-0.9-7.8-2.6-10.1
		c-1.7-2.3-4.2-3.4-7.5-3.4c-3.3,0-5.8,1.1-7.6,3.4c-1.8,2.3-2.6,5.6-2.6,10.1c0,4.4,0.9,7.6,2.7,9.7
		C102.2,137.8,104.7,138.8,107.9,138.8"/>
	<polygon fill="#B1B1B1" points="156.7,144.2 156.7,118.6 149.8,144.2 142,144.2 135.1,118.7 135.1,144.2 127.9,144.2 127.9,106.9 
		139.3,106.9 146.1,134.2 152.8,106.9 164,106.9 164,144.2 	"/>
	<path fill="#B1B1B1" d="M67.3,143.7h2.5l5.4,12.6h-2.9l-1.1-2.8h-5.3l-1.1,2.8h-2.8L67.3,143.7z M70.2,151l-1.7-4.1l-1.7,4.1H70.2z
		"/>
	<path fill="#B1B1B1" d="M82.3,156.5c-0.9,0-1.8-0.2-2.6-0.5c-0.8-0.3-1.5-0.8-2-1.4c-0.6-0.6-1-1.3-1.3-2c-0.3-0.8-0.5-1.6-0.5-2.5
		v0c0-0.9,0.2-1.7,0.5-2.5c0.3-0.8,0.8-1.5,1.3-2.1c0.6-0.6,1.3-1.1,2.1-1.4c0.8-0.3,1.7-0.5,2.6-0.5c0.6,0,1.1,0,1.6,0.1
		c0.5,0.1,0.9,0.2,1.3,0.4c0.4,0.2,0.8,0.4,1.1,0.6c0.3,0.2,0.6,0.5,0.9,0.8l-1.7,2c-0.5-0.4-1-0.8-1.5-1c-0.5-0.2-1.1-0.4-1.7-0.4
		c-0.5,0-1,0.1-1.5,0.3c-0.4,0.2-0.8,0.5-1.2,0.8c-0.3,0.4-0.6,0.8-0.7,1.2c-0.2,0.5-0.3,1-0.3,1.5v0c0,0.5,0.1,1,0.3,1.5
		c0.2,0.5,0.4,0.9,0.7,1.2c0.3,0.4,0.7,0.6,1.1,0.9c0.4,0.2,0.9,0.3,1.5,0.3c0.7,0,1.3-0.1,1.8-0.4c0.5-0.3,1-0.6,1.5-1.1l1.7,1.8
		c-0.3,0.3-0.7,0.7-1,0.9c-0.3,0.3-0.7,0.5-1.1,0.7c-0.4,0.2-0.9,0.3-1.3,0.4C83.5,156.4,82.9,156.5,82.3,156.5"/>
	<path fill="#B1B1B1" d="M94,143.7h2.5l5.4,12.6H99l-1.1-2.8h-5.3l-1.1,2.8h-2.8L94,143.7z M96.9,151l-1.7-4.1l-1.7,4.1H96.9z"/>
	<path fill="#B1B1B1" d="M103.8,143.8h4.9c1,0,1.9,0.2,2.7,0.5c0.8,0.3,1.5,0.8,2.1,1.3c0.6,0.6,1,1.2,1.4,2
		c0.3,0.8,0.5,1.6,0.5,2.5v0c0,0.9-0.2,1.7-0.5,2.5c-0.3,0.8-0.8,1.4-1.4,2c-0.6,0.6-1.3,1-2.1,1.3c-0.8,0.3-1.7,0.5-2.7,0.5h-4.9
		V143.8z M108.7,153.8c0.6,0,1.1-0.1,1.5-0.3c0.5-0.2,0.9-0.4,1.2-0.8c0.3-0.3,0.6-0.7,0.8-1.2c0.2-0.5,0.3-1,0.3-1.5v0
		c0-0.5-0.1-1.1-0.3-1.5c-0.2-0.5-0.4-0.9-0.8-1.2c-0.3-0.3-0.7-0.6-1.2-0.8c-0.5-0.2-1-0.3-1.5-0.3h-2.1v7.5H108.7z"/>
	<polygon fill="#B1B1B1" points="117.9,143.8 127.3,143.8 127.3,146.2 120.6,146.2 120.6,148.8 126.5,148.8 126.5,151.2 
		120.6,151.2 120.6,153.8 127.4,153.8 127.4,156.3 117.9,156.3 	"/>
	<polygon fill="#B1B1B1" points="130.2,143.8 133.2,143.8 136.5,149.1 139.8,143.8 142.7,143.8 142.7,156.3 140,156.3 140,148.1 
		136.5,153.4 136.4,153.4 132.9,148.2 132.9,156.3 130.2,156.3 	"/>
	<rect x="146" y="143.8" fill="#B1B1B1" width="2.8" height="12.5"/>
	<path fill="#B1B1B1" d="M156.1,143.7h2.5l5.4,12.6h-2.9l-1.1-2.8h-5.3l-1.1,2.8h-2.8L156.1,143.7z M159,151l-1.7-4.1l-1.7,4.1H159z
		"/>
	<path fill="#B1B1B1" d="M199.1,61.6L185,70c25.3,43.2,11,98.8-32,124.5c-42.8,25.5-98,12-124.2-30.2l27.5-16.4l-1.3-2.1L0,178.6
		l1.3,2.1l13.4-8c30.8,49.9,96.2,66,146.7,35.9C212.3,178.3,229,112.6,199.1,61.6"/>
</g>
</svg>
