<?xml version="1.0" encoding="utf-8"?>
<!-- Generator: Adobe Illustrator 17.1.0, SVG Export Plug-In . SVG Version: 6.00 Build 0)  -->
<!DOCTYPE svg PUBLIC "-//W3C//DTD SVG 1.1//EN" "http://www.w3.org/Graphics/SVG/1.1/DTD/svg11.dtd">
<svg version="1.1" id="Capa_1" xmlns="http://www.w3.org/2000/svg" xmlns:xlink="http://www.w3.org/1999/xlink" x="0px" y="0px"
	 width="1677.8px" height="168.7px" viewBox="0 0 1677.8 168.7" enable-background="new 0 0 1677.8 168.7" xml:space="preserve">
<g>
	<path fill="#FFFFFF" d="M30,101.1c0,2.8-0.6,5.2-1.7,7.4c-1.1,2.2-2.8,3.8-5.1,5.1c-2.3,1.2-5.1,1.9-8.4,1.9c-4.8,0-8.4-1.3-11-3.9
		C1.3,109,0,105.5,0,101V75.9h4.9v25.3c0,3.2,0.8,5.7,2.6,7.4c1.7,1.7,4.3,2.6,7.6,2.6c3.4,0,5.9-0.9,7.6-2.7
		c1.7-1.8,2.5-4.2,2.5-7.3V75.9H30V101.1z"/>
	<path fill="#FFFFFF" d="M87,114.9L66.1,82.5h-0.2c0.3,4.5,0.4,8.1,0.4,10.6v21.8h-4.5v-39h5.7l20.8,32.3h0.2
		c-0.3-4.1-0.4-7.5-0.4-10.3v-22h4.6v39H87z"/>
	<polygon fill="#FFFFFF" points="121.8,114.9 123.4,110.5 126.4,110.5 126.4,80.2 121.8,80.2 121.8,75.9 135.9,75.9 134.2,80.2 
		131.3,80.2 131.3,110.5 135.9,110.5 135.9,114.9 	"/>
	<path fill="#FFFFFF" d="M180.9,114.9H176l-13.9-39h5.1l8.8,25c1.1,3,1.9,5.8,2.5,8.5c0.4-2.4,1.3-5.2,2.5-8.6l8.7-24.9h5.2
		L180.9,114.9z"/>
	<polygon fill="#FFFFFF" points="222.5,114.9 222.5,75.9 244.3,75.9 244.3,80.2 227.4,80.2 227.4,92.4 242.1,92.4 242.1,96.7 
		227.4,96.7 227.4,110.6 245.5,110.6 243.9,114.9 	"/>
	<path fill="#FFFFFF" d="M295.7,78.7c2.3,1.8,3.5,4.6,3.5,8.3c0,5.1-2.6,8.6-7.8,10.4l10.7,17.5h-5.7l-9.4-16.1h-7.8v16.1h-4.9v-39
		H285C289.8,75.9,293.3,76.8,295.7,78.7 M279.1,80.2v14.5h5.8c3.1,0,5.4-0.6,6.9-1.9c1.5-1.2,2.2-3.1,2.2-5.6c0-2.5-0.8-4.3-2.3-5.4
		c-1.5-1.1-3.9-1.6-7.1-1.6H279.1z"/>
	<path fill="#FFFFFF" d="M349.6,112.5c-2.5,1.9-5.9,2.9-10.2,2.9c-2.2,0-4.2-0.2-6.1-0.5c-1.9-0.3-3.4-0.8-4.6-1.4l1.5-4
		c1,0.4,2.3,0.8,4,1.1c1.7,0.3,3.5,0.5,5.4,0.5c2.8,0,5-0.6,6.5-1.7c1.5-1.1,2.3-2.6,2.3-4.6c0-1.3-0.3-2.3-0.8-3.2
		c-0.5-0.9-1.5-1.7-2.8-2.4c-1.3-0.7-3.2-1.5-5.6-2.4c-3.5-1.2-6-2.7-7.6-4.5c-1.6-1.8-2.4-4.1-2.4-7.1c0-3.1,1.1-5.5,3.4-7.3
		c2.3-1.8,5.3-2.7,9-2.7c3.9,0,7.5,0.7,10.8,2.2l-1.6,4.2c-3.3-1.4-6.4-2.1-9.3-2.1c-2.4,0-4.2,0.5-5.5,1.5c-1.3,1-1.9,2.4-1.9,4.1
		c0,1.3,0.3,2.4,0.8,3.3c0.5,0.9,1.4,1.6,2.6,2.3c1.2,0.7,2.9,1.4,5.1,2.3c2.5,0.9,4.5,1.8,6,2.8c1.5,0.9,2.7,2.1,3.5,3.5
		c0.8,1.4,1.2,3,1.2,5C353.4,107.9,352.1,110.6,349.6,112.5"/>
	<polygon fill="#FFFFFF" points="380.3,114.9 382,110.5 384.9,110.5 384.9,80.2 380.3,80.2 380.3,75.9 394.4,75.9 392.8,80.2 
		389.8,80.2 389.8,110.5 394.4,110.5 394.4,114.9 	"/>
	<path fill="#FFFFFF" d="M449.4,109.9c-3.6,3.4-8.6,5-15,5h-10.9v-39h12c6,0,10.7,1.6,14.1,4.9c3.4,3.3,5.1,8,5.1,14.2
		C454.7,101.5,452.9,106.5,449.4,109.9 M445.8,83.8c-2.5-2.5-6.2-3.7-11-3.7h-6.4v30.6h5.3c5.3,0,9.2-1.3,11.9-3.9
		c2.6-2.6,4-6.5,4-11.6C449.5,90.1,448.3,86.3,445.8,83.8"/>
	<path fill="#FFFFFF" d="M567.2,109.9c-3.5,3.4-8.6,5-15,5h-10.9v-39h12c6,0,10.7,1.6,14.1,4.9c3.4,3.3,5.1,8,5.1,14.2
		C572.6,101.5,570.8,106.5,567.2,109.9 M563.6,83.8c-2.5-2.5-6.2-3.7-11-3.7h-6.4v30.6h5.3c5.3,0,9.2-1.3,11.9-3.9
		c2.6-2.6,4-6.5,4-11.6C567.4,90.1,566.1,86.3,563.6,83.8"/>
	<path fill="#FFFFFF" d="M665,109.9c-3.5,3.4-8.6,5-15,5h-10.9v-39h12c6,0,10.7,1.6,14.1,4.9c3.4,3.3,5.1,8,5.1,14.2
		C670.3,101.5,668.5,106.5,665,109.9 M661.3,83.8c-2.5-2.5-6.2-3.7-11-3.7H644v30.6h5.3c5.3,0,9.2-1.3,11.9-3.9
		c2.6-2.6,4-6.5,4-11.6C665.1,90.1,663.9,86.3,661.3,83.8"/>
	<polygon fill="#FFFFFF" points="700.5,114.9 700.5,75.9 722.2,75.9 722.2,80.2 705.4,80.2 705.4,92.4 720,92.4 720,96.7 
		705.4,96.7 705.4,110.6 723.4,110.6 721.8,114.9 	"/>
	<path fill="#FFFFFF" d="M999.9,80.7h-0.2c0.3,2.6,0.4,6.1,0.4,10.5v23.6h-4.5v-39h7.3l12,31.9h0.2l12.2-31.9h7.2v39h-4.9v-24
		c0-3.1,0.1-6.5,0.4-10.2h-0.2l-13,34.1h-4L999.9,80.7z"/>
	<path fill="#FFFFFF" d="M1098.7,105.9c-1.4,3-3.4,5.4-6.1,7c-2.7,1.7-5.9,2.5-9.8,2.5c-5.9,0-10.4-1.8-13.5-5.4
		c-3-3.6-4.6-8.5-4.6-14.7c0-6.2,1.5-11.1,4.6-14.6c3.1-3.6,7.6-5.3,13.5-5.3c3.8,0,7.1,0.8,9.8,2.5c2.7,1.6,4.7,4,6.1,7
		c1.4,3,2,6.5,2,10.6C1100.8,99.4,1100.1,102.9,1098.7,105.9 M1073.2,107.1c2.1,2.8,5.3,4.1,9.6,4.1c4.3,0,7.5-1.4,9.6-4.1
		c2.1-2.8,3.2-6.7,3.2-11.7c0-5.1-1-8.9-3.1-11.7c-2.1-2.7-5.3-4.1-9.6-4.1c-4.3,0-7.6,1.4-9.7,4.1c-2.1,2.7-3.2,6.6-3.2,11.6
		C1070,100.4,1071,104.3,1073.2,107.1"/>
	<path fill="#FFFFFF" d="M1156.2,114.9l-20.9-32.4h-0.2c0.3,4.5,0.4,8.1,0.4,10.6v21.8h-4.5v-39h5.7l20.8,32.3h0.2
		c-0.3-4.1-0.4-7.5-0.4-10.3v-22h4.6v39H1156.2z"/>
	<polygon fill="#FFFFFF" points="1202.1,114.9 1202.1,80.2 1189.9,80.2 1191.6,75.9 1219.1,75.9 1219.1,80.2 1207,80.2 1207,114.9 	
		"/>
	<polygon fill="#FFFFFF" points="1247.1,114.9 1247.1,75.9 1268.9,75.9 1268.9,80.2 1252,80.2 1252,92.4 1266.7,92.4 1266.7,96.7 
		1252,96.7 1252,110.6 1270.1,110.6 1268.5,114.9 	"/>
	<path fill="#FFFFFF" d="M1303.2,80.7h-0.2c0.3,2.6,0.4,6.1,0.4,10.5v23.6h-4.5v-39h7.3l12,31.9h0.2l12.2-31.9h7.2v39h-4.9v-24
		c0-3.1,0.1-6.5,0.4-10.2h-0.2l-13,34.1h-4L1303.2,80.7z"/>
	<path fill="#FFFFFF" d="M1402,105.9c-1.4,3-3.4,5.4-6.1,7c-2.7,1.7-5.9,2.5-9.8,2.5c-5.9,0-10.4-1.8-13.5-5.4
		c-3-3.6-4.6-8.5-4.6-14.7c0-6.2,1.5-11.1,4.6-14.6c3.1-3.6,7.6-5.3,13.5-5.3c3.8,0,7.1,0.8,9.8,2.5c2.7,1.6,4.7,4,6.1,7
		c1.4,3,2,6.5,2,10.6C1404,99.4,1403.3,102.9,1402,105.9 M1376.4,107.1c2.1,2.8,5.3,4.1,9.6,4.1c4.3,0,7.5-1.4,9.6-4.1
		c2.1-2.8,3.2-6.7,3.2-11.7c0-5.1-1-8.9-3.1-11.7c-2.1-2.7-5.3-4.1-9.6-4.1c-4.3,0-7.6,1.4-9.7,4.1c-2.1,2.7-3.2,6.6-3.2,11.6
		C1373.2,100.4,1374.3,104.3,1376.4,107.1"/>
	<path fill="#FFFFFF" d="M1455.8,78.7c2.3,1.8,3.5,4.6,3.5,8.3c0,5.1-2.6,8.6-7.8,10.4l10.7,17.5h-5.7l-9.5-16.1h-7.8v16.1h-4.9v-39
		h10.8C1449.9,75.9,1453.4,76.8,1455.8,78.7 M1439.2,80.2v14.5h5.8c3.1,0,5.4-0.6,6.9-1.9c1.5-1.2,2.2-3.1,2.2-5.6
		c0-2.5-0.8-4.3-2.3-5.4c-1.5-1.1-3.9-1.6-7.1-1.6H1439.2z"/>
	<polygon fill="#FFFFFF" points="1490.3,114.9 1490.3,75.9 1512.1,75.9 1512.1,80.2 1495.2,80.2 1495.2,92.4 1509.8,92.4 
		1509.8,96.7 1495.2,96.7 1495.2,110.6 1513.3,110.6 1511.6,114.9 	"/>
	<polygon fill="#FFFFFF" points="1542,75.9 1546.9,75.9 1546.9,110.5 1564.9,110.5 1563.2,114.9 1542,114.9 	"/>
	<path fill="#FFFFFF" d="M1623.7,105.9c-1.4,3-3.4,5.4-6.1,7c-2.7,1.7-5.9,2.5-9.8,2.5c-5.9,0-10.4-1.8-13.5-5.4
		c-3-3.6-4.6-8.5-4.6-14.7c0-6.2,1.5-11.1,4.6-14.6c3.1-3.6,7.6-5.3,13.5-5.3c3.8,0,7.1,0.8,9.8,2.5c2.7,1.6,4.7,4,6.1,7
		c1.4,3,2,6.5,2,10.6C1625.8,99.4,1625.1,102.9,1623.7,105.9 M1598.2,107.1c2.1,2.8,5.3,4.1,9.6,4.1c4.3,0,7.5-1.4,9.6-4.1
		c2.1-2.8,3.2-6.7,3.2-11.7c0-5.1-1-8.9-3.1-11.7c-2.1-2.7-5.3-4.1-9.6-4.1c-4.3,0-7.6,1.4-9.7,4.1c-2.1,2.7-3.2,6.6-3.2,11.6
		C1595,100.4,1596,104.3,1598.2,107.1"/>
	<path fill="#FFFFFF" d="M1674.1,112.5c-2.5,1.9-5.9,2.9-10.2,2.9c-2.2,0-4.2-0.2-6.1-0.5c-1.9-0.3-3.4-0.8-4.6-1.4l1.5-4
		c1,0.4,2.3,0.8,4,1.1c1.7,0.3,3.5,0.5,5.4,0.5c2.8,0,5-0.6,6.5-1.7c1.5-1.1,2.3-2.6,2.3-4.6c0-1.3-0.3-2.3-0.8-3.2
		c-0.5-0.9-1.5-1.7-2.8-2.4c-1.3-0.7-3.2-1.5-5.6-2.4c-3.5-1.2-6-2.7-7.6-4.5c-1.6-1.8-2.4-4.1-2.4-7.1c0-3.1,1.1-5.5,3.4-7.3
		c2.3-1.8,5.3-2.7,9-2.7c3.9,0,7.5,0.7,10.8,2.2l-1.6,4.2c-3.3-1.4-6.4-2.1-9.3-2.1c-2.4,0-4.2,0.5-5.5,1.5c-1.3,1-1.9,2.4-1.9,4.1
		c0,1.3,0.3,2.4,0.8,3.3c0.5,0.9,1.4,1.6,2.6,2.3c1.2,0.7,2.9,1.4,5.1,2.3c2.5,0.9,4.5,1.8,6,2.8c1.5,0.9,2.7,2.1,3.5,3.5
		c0.8,1.4,1.2,3,1.2,5C1677.8,107.9,1676.6,110.6,1674.1,112.5"/>
	<path fill="#FFFFFF" d="M877,122c0-0.1,0-0.1-0.1-0.2c-2.6-7.7-2.7-17.3,4.7-27.6c5.8-8.2,11.9-15.3,10.6-28.2c0-0.1-0.1-1.4,1.2-2
		c1.5-0.6,2.4,0.7,2.5,0.7c6.6,11.1,8.1,23,4.7,32.4c-4.6,12.4-14.7,15.9-19.9,25.4c-0.3,0.6-1.1,1-1.8,1
		C878.1,123.4,877.3,122.9,877,122"/>
	<path fill="#FFFFFF" d="M841.8,128.3c-21.6-8.2-39.5-36.6-16.6-67c19.9-26.5,34.1-41.7,29.3-59.8c-0.1-0.4-0.2-1.6,0.9-2.2
		c1.8-0.9,2.8,0.8,2.9,0.9c11.6,19.2,1.1,42-15.9,68.1c-9.6,14.8-14.9,38,1.7,56.6c0.9,1,0.8,2,0.3,2.7
		C843.8,128.3,843,128.8,841.8,128.3"/>
	<path fill="#FFFFFF" d="M779.2,143.8c2.9-0.5,13.5-2.6,35.5-8.4c13.8-3.6,29.4-1.1,35.8,5.5c5.7,5.9,7.8,13.1,8.2,14.2
		c0.6,1.7,1.4,5.6,1.4,5.6s2.3-6.2,3.1-7.3c0.5-0.8,3.4-0.9,5.6-6.7c1.6-4.3,0.1-10.4-7.8-15.9c-16.9-11.8-18.9-40.4-4.3-61.9
		c13.6-20.1,18.5-33.1,16.6-43.6c0-0.2-0.2-1.6,1-2.2c1.3-0.7,2.4,0.4,2.5,0.5c17.4,23.1,3.5,45.9-4.9,58.2
		c-8.1,11.9-10.8,21.9-8.3,33.5c0.5,2.5,1,6.2,3.2,10.2c2.1,3.2,5.4,11.9,10.7,10c8.4-3.1,16.7-1.2,30.8,1.9
		c19.9,4.2,29.4,6.1,32.1,6.5c0.8,0.2,1.3,0.8,1.4,1c0.1,0.1,14.4,19.6,14.4,19.6s0.8,0.9,0.2,2c-0.3,0.6-0.9,1.3-2.3,1.1
		c-12-2.3-41.9-8-54.1-9.7c-16.1-2.3-31.2-0.2-38.1,8c-0.3,0.4-0.8,1-1.7,1c-0.9,0-1.4-0.5-1.7-0.9c-6.9-8.1-21.7-10.3-37.1-8.1
		c-12.1,1.7-42.7,7.5-54.9,9.8c-1.4,0.4-2.4-0.5-2.6-1.4c-0.3-0.9,0.4-1.8,0.4-1.8l13.8-19.9C777.9,144.5,778.3,144,779.2,143.8"/>
	<path fill="#FFFFFF" d="M500.4,102.8H485l-4.6,12.1h-5l15.2-39.1h4.4l15.2,39.1h-5.1L500.4,102.8z M494.6,86.7
		c-0.3-0.7-0.6-1.7-0.9-2.8c-0.4-1.1-0.7-2.1-0.9-3.1c-0.5,2.2-1.1,4.1-1.7,5.8l-4.4,11.8H499L494.6,86.7z"/>
</g>
</svg>
